<svg xmlns="http://www.w3.org/2000/svg" viewBox="0 0 677.4 333.98"><defs><style>.cls-1{fill:#162b4d;}.cls-2{fill:#dd3926;}</style></defs><title>IntelliscopeLogoVector</title><g id="Layer_2" data-name="Layer 2"><g id="Layer_1-2" data-name="Layer 1"><rect class="cls-1" x="1.42" y="205.63" width="7.25" height="72.54"/><polygon class="cls-1" points="1.42 205.63 1.42 207.05 7.25 207.05 7.25 276.74 2.85 276.74 2.85 205.63 1.42 205.63 1.42 207.05 1.42 205.63 0 205.63 0 279.59 10.1 279.59 10.1 204.2 0 204.2 0 205.63 1.42 205.63"/><polygon class="cls-1" points="29.08 278.17 29.08 205.63 30.66 205.63 78.93 261.23 78.93 205.63 86.08 205.63 86.08 278.17 84.46 278.17 36.57 223.24 36.57 278.17 29.08 278.17"/><polygon class="cls-1" points="29.08 278.17 30.5 278.17 30.5 207.05 30.66 207.05 30.66 205.63 29.58 206.56 80.36 265.04 80.36 207.05 84.66 207.05 84.66 276.74 84.46 276.75 84.46 278.17 85.53 277.23 35.15 219.44 35.15 276.74 29.08 276.75 29.08 278.17 30.5 278.17 29.08 278.17 29.08 279.59 38 279.59 38 227.03 83.81 279.59 87.51 279.59 87.51 204.2 77.51 204.2 77.51 257.42 31.3 204.2 27.66 204.2 27.66 279.59 29.08 279.59 29.08 278.17"/><polygon class="cls-1" points="100.28 212.73 100.28 205.63 140.02 205.63 140.02 212.73 123.85 212.73 123.85 278.17 116.45 278.17 116.45 212.73 100.28 212.73"/><polygon class="cls-1" points="100.28 212.73 101.7 212.73 101.7 207.05 138.6 207.05 138.6 211.3 122.42 211.3 122.42 276.74 117.87 276.74 117.87 211.3 100.28 211.3 100.28 212.73 101.7 212.73 100.28 212.73 100.28 214.15 115.03 214.15 115.03 279.59 125.27 279.59 125.27 214.15 141.44 214.15 141.44 204.2 98.85 204.2 98.85 214.15 100.28 214.15 100.28 212.73"/><polygon class="cls-1" points="154.26 205.63 195.84 205.63 195.84 212.73 161.51 212.73 161.51 235.46 195.54 235.46 195.54 242.56 161.51 242.56 161.51 271.07 195.54 271.07 195.54 278.17 154.26 278.17 154.26 205.63"/><polygon class="cls-1" points="154.26 205.63 154.26 207.05 194.41 207.05 194.41 211.3 160.09 211.3 160.09 236.88 194.12 236.88 194.12 241.14 160.09 241.14 160.09 272.49 194.12 272.49 194.12 276.75 155.69 276.75 155.69 205.63 154.26 205.63 154.26 207.05 154.26 205.63 152.84 205.63 152.84 279.59 196.96 279.59 196.96 269.64 162.94 269.64 162.94 243.98 196.96 243.98 196.96 234.04 162.94 234.04 162.94 214.15 197.26 214.15 197.26 204.2 152.84 204.2 152.84 205.63 154.26 205.63"/><polygon class="cls-1" points="212.1 205.63 219.35 205.63 219.35 271.16 247.26 271.16 247.26 278.17 212.1 278.17 212.1 205.63"/><polygon class="cls-1" points="212.1 205.63 212.1 207.05 217.93 207.05 217.93 272.59 245.84 272.59 245.84 276.74 213.52 276.74 213.52 205.63 212.1 205.63 212.1 207.05 212.1 205.63 210.68 205.63 210.68 279.59 248.68 279.59 248.68 269.74 220.77 269.74 220.77 204.2 210.68 204.2 210.68 205.63 212.1 205.63"/><polygon class="cls-1" points="262.49 205.63 269.74 205.63 269.74 271.16 297.65 271.16 297.65 278.17 262.49 278.17 262.49 205.63"/><polygon class="cls-1" points="262.49 205.63 262.49 207.05 268.31 207.05 268.31 272.59 296.23 272.59 296.23 276.74 263.91 276.74 263.91 205.63 262.49 205.63 262.49 207.05 262.49 205.63 261.06 205.63 261.06 279.59 299.07 279.59 299.07 269.74 271.16 269.74 271.16 204.2 261.06 204.2 261.06 205.63 262.49 205.63"/><rect class="cls-1" x="311.84" y="205.63" width="7.25" height="72.54"/><polygon class="cls-1" points="311.84 205.63 311.84 207.05 317.67 207.05 317.67 276.74 313.26 276.74 313.26 205.63 311.84 205.63 311.84 207.05 311.84 205.63 310.42 205.63 310.42 279.59 320.51 279.59 320.51 204.2 310.42 204.2 310.42 205.63 311.84 205.63"/><path class="cls-1" d="M86.57,302.63c-2.18-.78-5.54-1.14-10.16-1.14H69.53v31.72H79.81c3.87,0,6.92-.56,9.16-1.73a13.36,13.36,0,0,0,5.38-5.37,16.67,16.67,0,0,0,2.06-8.37,17,17,0,0,0-2.6-9.48A13.83,13.83,0,0,0,86.57,302.63Zm-13,2.93h1.63a36.11,36.11,0,0,1,9.33.85,10.24,10.24,0,0,1,5.69,4.1,12.54,12.54,0,0,1,2.06,7.28,11.93,11.93,0,0,1-1.89,6.85,9.67,9.67,0,0,1-5.16,3.84c-1.52.49-4.44.77-8.65.77h-3Z"/><polygon class="cls-1" points="102.88 302.02 102.88 333.21 121.39 333.21 121.39 329.14 107.01 329.14 107.01 318.17 121.39 318.17 121.39 314.1 107.01 314.1 107.01 305.56 121.51 305.56 121.51 301.49 102.88 301.49 102.88 302.02"/><path class="cls-1" d="M136,314.93c-1.11-.82-2-1.49-2.65-2s-1.08-.85-1.25-1a7,7,0,0,1-1.41-1.88,4.16,4.16,0,0,1-.37-1.72,3.17,3.17,0,0,1,1-2.39,3.68,3.68,0,0,1,2.66-1,4.59,4.59,0,0,1,2.38.66,11.52,11.52,0,0,1,2.8,2.88l.32.43,3.34-2.54-.31-.42a14.45,14.45,0,0,0-4.15-4.1,8.64,8.64,0,0,0-4.32-1.14,8.41,8.41,0,0,0-4,1,7.44,7.44,0,0,0-2.9,2.8,7.62,7.62,0,0,0-1,3.91,8.14,8.14,0,0,0,1.73,5h0a26.72,26.72,0,0,0,4.88,4.29,24.28,24.28,0,0,1,5.13,4.8,4.63,4.63,0,0,1,.95,2.72,4.41,4.41,0,0,1-.64,2.29,4.5,4.5,0,0,1-1.85,1.73,5.53,5.53,0,0,1-2.65.65,4.77,4.77,0,0,1-3.06-1.15,11.76,11.76,0,0,1-2.82-3.63l-.27-.49L124,326.77l.25.45a14.05,14.05,0,0,0,4.36,5.18,9.59,9.59,0,0,0,5.36,1.58,9.06,9.06,0,0,0,6.53-2.61,8.39,8.39,0,0,0,2.69-6.17,9,9,0,0,0-1.57-4.9A22.76,22.76,0,0,0,136,314.93Z"/><polygon class="cls-1" points="149.71 302.02 149.71 333.21 153.84 333.21 153.84 301.49 149.71 301.49 149.71 302.02"/><path class="cls-1" d="M179.55,321.48h9.66a9.88,9.88,0,0,1-3.57,6A11.77,11.77,0,0,1,178,330a14.29,14.29,0,0,1-6.92-1.72,12.65,12.65,0,0,1-4.92-4.7,12.11,12.11,0,0,1-1.78-6.3,11.86,11.86,0,0,1,1.72-6.14,12.3,12.3,0,0,1,4.85-4.6,13.52,13.52,0,0,1,6.61-1.71,14.65,14.65,0,0,1,5.74,1.26,17.6,17.6,0,0,1,5.45,3.71l.37.36,3.15-3-.4-.39a22.33,22.33,0,0,0-6.88-4.61,19.61,19.61,0,0,0-7.53-1.45,18.12,18.12,0,0,0-8.89,2.18,16.49,16.49,0,0,0-8.46,14.44A15.9,15.9,0,0,0,164,328c3.4,4,8.08,6,13.86,6,4.77,0,8.67-1.44,11.56-4.33s4.35-6.82,4.38-11.66v-.54H179.55Z"/><polygon class="cls-1" points="221.26 324.09 201.63 301.49 200.73 301.49 200.19 301.49 200.19 333.21 200.73 333.21 204.43 333.21 204.43 310.89 223.88 333.21 224.81 333.21 225.35 333.21 225.35 301.49 221.26 301.49 221.26 324.09"/><polygon class="cls-1" points="233.34 302.02 233.34 333.21 251.85 333.21 251.85 329.14 237.47 329.14 237.47 318.17 251.85 318.17 251.85 314.1 237.47 314.1 237.47 305.56 251.97 305.56 251.97 301.49 233.34 301.49 233.34 302.02"/><path class="cls-1" d="M274.82,302.63c-2.18-.78-5.54-1.14-10.16-1.14h-6.88v31.72h10.28c3.87,0,6.92-.56,9.16-1.73a13.36,13.36,0,0,0,5.38-5.37,16.67,16.67,0,0,0,2.06-8.37,17,17,0,0,0-2.6-9.48A13.8,13.8,0,0,0,274.82,302.63Zm-13,2.93h1.63a36.11,36.11,0,0,1,9.33.85,10.26,10.26,0,0,1,5.7,4.1,12.61,12.61,0,0,1,2.05,7.28,11.93,11.93,0,0,1-1.89,6.85,9.67,9.67,0,0,1-5.16,3.84c-1.52.49-4.44.77-8.65.77h-3Z"/><polygon class="cls-1" points="301.46 305.56 302 305.56 308.3 305.56 308.3 333.21 312.49 333.21 312.49 305.56 319.32 305.56 319.32 301.49 301.46 301.49 301.46 305.56"/><path class="cls-1" d="M339.38,300.72A16.36,16.36,0,0,0,325.1,309a17,17,0,0,0-2.2,8.46,15.88,15.88,0,0,0,4.85,11.67A16.23,16.23,0,0,0,339.63,334a16.69,16.69,0,0,0,11.78-28.46A16.45,16.45,0,0,0,339.38,300.72ZM352,317.33a12.84,12.84,0,0,1-1.63,6.41,11.83,11.83,0,0,1-4.54,4.53,12.56,12.56,0,0,1-6.34,1.66,12.36,12.36,0,0,1-12.39-12.45,12.76,12.76,0,0,1,1.64-6.43,12.18,12.18,0,0,1,4.57-4.58,12,12,0,0,1,6.18-1.7,12.41,12.41,0,0,1,6.29,1.7A12.18,12.18,0,0,1,350.4,311,12.36,12.36,0,0,1,352,317.33Z"/><path class="cls-1" d="M385,314.93c-1.11-.82-2-1.49-2.66-2s-1.07-.85-1.24-1a7,7,0,0,1-1.41-1.88,4.16,4.16,0,0,1-.37-1.72,3.2,3.2,0,0,1,1-2.39,3.72,3.72,0,0,1,2.67-1,4.59,4.59,0,0,1,2.38.66,11.52,11.52,0,0,1,2.8,2.88l.32.43,3.34-2.54-.31-.42a14.45,14.45,0,0,0-4.15-4.1,8.64,8.64,0,0,0-4.32-1.14,8.41,8.41,0,0,0-4,1,7.44,7.44,0,0,0-2.9,2.8,7.62,7.62,0,0,0-1,3.91,8.14,8.14,0,0,0,1.73,5h0a26.72,26.72,0,0,0,4.88,4.29,24.54,24.54,0,0,1,5.13,4.8,4.63,4.63,0,0,1,.95,2.72,4.41,4.41,0,0,1-.64,2.29,4.5,4.5,0,0,1-1.85,1.73,5.53,5.53,0,0,1-2.65.65,4.77,4.77,0,0,1-3.06-1.15,11.76,11.76,0,0,1-2.82-3.63l-.27-.49L373,326.77l.25.45a14.05,14.05,0,0,0,4.36,5.18,9.59,9.59,0,0,0,5.36,1.58,9,9,0,0,0,6.52-2.61,8.36,8.36,0,0,0,2.7-6.17,9,9,0,0,0-1.57-4.9A22.76,22.76,0,0,0,385,314.93Z"/><path class="cls-1" d="M412.21,301.49h-1.09l-15,31.72h4.6l4.77-10.09H418l4.82,10.09h4.49l-14.79-31.72Zm4,17.61h-8.79l4.41-9.31Z"/><polygon class="cls-1" points="443.99 324.36 434.18 301.49 429.69 301.49 430.01 302.24 443.29 333.21 444.31 333.21 444.66 333.21 458.46 301.49 453.96 301.49 443.99 324.36"/><polygon class="cls-1" points="463.86 302.02 463.86 333.21 482.37 333.21 482.37 329.14 467.99 329.14 467.99 318.17 482.37 318.17 482.37 314.1 467.99 314.1 467.99 305.56 482.49 305.56 482.49 301.49 463.86 301.49 463.86 302.02"/><polygon class="cls-1" points="505.82 301.49 501.69 301.49 501.69 302.02 501.69 333.21 517.62 333.21 517.62 329.18 505.82 329.18 505.82 301.49"/><polygon class="cls-1" points="522.54 302.02 522.54 333.21 526.67 333.21 526.67 301.49 522.54 301.49 522.54 302.02"/><polygon class="cls-1" points="545.9 324.36 536.09 301.49 531.6 301.49 531.92 302.24 545.21 333.21 546.22 333.21 546.57 333.21 560.37 301.49 555.88 301.49 545.9 324.36"/><polygon class="cls-1" points="565.77 302.02 565.77 333.21 584.28 333.21 584.28 329.14 569.9 329.14 569.9 318.17 584.28 318.17 584.28 314.1 569.9 314.1 569.9 305.56 584.4 305.56 584.4 301.49 565.77 301.49 565.77 302.02"/><path class="cls-1" d="M604.48,320.3a22.58,22.58,0,0,0-5.59-5.37c-1.11-.82-2-1.49-2.65-2s-1.08-.85-1.25-1a7,7,0,0,1-1.41-1.88,4.33,4.33,0,0,1-.37-1.72,3.17,3.17,0,0,1,1-2.39,3.68,3.68,0,0,1,2.66-1,4.59,4.59,0,0,1,2.38.66,11.35,11.35,0,0,1,2.8,2.88l.32.43,3.35-2.54-.31-.42a14.6,14.6,0,0,0-4.16-4.1,8.64,8.64,0,0,0-4.32-1.14,8.41,8.41,0,0,0-4,1,7.51,7.51,0,0,0-2.9,2.8,7.62,7.62,0,0,0-1,3.91,8.2,8.2,0,0,0,1.73,5h0a26.72,26.72,0,0,0,4.88,4.29,24.28,24.28,0,0,1,5.13,4.8,4.63,4.63,0,0,1,.95,2.72,4.41,4.41,0,0,1-.64,2.29,4.5,4.5,0,0,1-1.85,1.73,5.52,5.52,0,0,1-2.64.65,4.74,4.74,0,0,1-3.06-1.15,11.62,11.62,0,0,1-2.83-3.63l-.27-.49-3.52,2.11.25.45a14.05,14.05,0,0,0,4.36,5.18,9.59,9.59,0,0,0,5.36,1.58,9.06,9.06,0,0,0,6.53-2.61,8.39,8.39,0,0,0,2.69-6.17A8.93,8.93,0,0,0,604.48,320.3Z"/><path class="cls-1" d="M227,154.88c-14.71,3.6-26.53,5.08-36,5.08-8.61,0-15.24-1.23-20.33-3.16-7.63-2.91-11.83-7.33-14.28-12a25.32,25.32,0,0,1-2.18-5.83,11.81,11.81,0,1,0-4.47-.41c.18.91.4,1.84.68,2.78A28,28,0,0,0,161.69,157c6.42,4.38,15.78,7.27,29.29,7.27,9.9,0,22-1.54,37-5.21Z"/><path class="cls-1" d="M191,40.31c-9,0-16.17,1.28-21.85,3.43-8.52,3.22-13.67,8.48-16.54,13.95a30.41,30.41,0,0,0-2.33,5.94,11.82,11.82,0,1,0,4.53-.18A23.52,23.52,0,0,1,164.1,51.1c5.52-3.77,14-6.52,26.88-6.53,9.45,0,21.27,1.48,36,5.09l1-4.15C213,41.85,200.87,40.31,191,40.31Z"/><path class="cls-1" d="M153.15,128l3,.62-2.92-2.18-18.87-25.24,19.18-25.66L153,75.1l-.12-.7-.47.09,1-.83-.44-.55.26-.67L107.61,55A11.81,11.81,0,1,0,87,58.72l-40,35A11.8,11.8,0,1,0,48.1,109l39,34.64a11.8,11.8,0,1,0,21.08,7.29,11.47,11.47,0,0,0-.26-2.44ZM104,141.88l15.27-20.42c6.19,1.11,12.82,2.38,18.56,3.49,4.33.84,8.14,1.6,10.88,2.14l2.08.42L107.5,147.06A11.81,11.81,0,0,0,104,141.88ZM50.22,100,85.31,89.08a11.79,11.79,0,0,0,20,3.44l11.3,8.41L105.14,110A11.78,11.78,0,0,0,84.92,115L50.28,103.61A12.38,12.38,0,0,0,50.4,102,12.24,12.24,0,0,0,50.22,100Zm76.34-6.86L117.81,100l-11.6-8.64a11.76,11.76,0,0,0,1.94-6.47,11.38,11.38,0,0,0-.08-1.31l10.09-1.74Zm-6.83-11.52,27.4-4.74L127.68,92.22Zm7.69,12.66,5.19,7-4.73,6.33L119,100.9ZM106,111.15l11.82-9.34,9.19,6.85-8.41,11.24c-2.83-.51-5.56-1-8.05-1.39l-2.43-.39c0-.08,0-.15,0-.22A11.74,11.74,0,0,0,106,111.15Zm22.15-1.64L150.24,126c-4.33-.87-12.61-2.52-21.33-4.16-2.9-.55-5.85-1.1-8.72-1.62Zm21.08,13.94L129,108.37l4.48-6Zm2.11-47.34L133.5,100l-5-6.64,21.54-17Zm.22-2.79L149.47,75l-30.7,5.32L104,60.5a11.81,11.81,0,0,0,3.12-4.14ZM88,59.79a11.8,11.8,0,0,0,14.88,1.57L117.2,80.58l-9.38,1.62a11.79,11.79,0,1,0-22.93,5.52l-35,10.85A11.79,11.79,0,0,0,48,94.81ZM50,105l34.66,11.36a12.64,12.64,0,0,0-.11,1.52A11.8,11.8,0,0,0,108,119.54l2.32.37c2.28.38,4.76.81,7.33,1.27L102.83,141A11.78,11.78,0,0,0,88,142.53L48.89,107.75A11.4,11.4,0,0,0,50,105Z"/><path class="cls-2" d="M332,264.65l6.16-3.69q6.51,12,15.05,12a14.45,14.45,0,0,0,6.85-1.7,12.11,12.11,0,0,0,4.88-4.56,11.8,11.8,0,0,0,1.68-6.07,12.26,12.26,0,0,0-2.47-7.15q-3.39-4.83-12.42-11.64t-11.3-9.91a18.15,18.15,0,0,1-3.84-11.1,16.88,16.88,0,0,1,2.26-8.63,16.35,16.35,0,0,1,6.39-6.14,18.48,18.48,0,0,1,8.95-2.24,19.09,19.09,0,0,1,9.59,2.54q4.47,2.53,9.45,9.35l-5.92,4.48q-4.1-5.41-7-7.15A12,12,0,0,0,354,211.3a9.94,9.94,0,0,0-7.17,2.66,8.7,8.7,0,0,0-2.79,6.56,11.08,11.08,0,0,0,1,4.58,17,17,0,0,0,3.6,4.84q1.42,1.38,9.37,7.25,9.42,6.94,12.92,12.37a20,20,0,0,1,3.5,10.9,18.51,18.51,0,0,1-6,13.71A20.14,20.14,0,0,1,353.85,280a21.38,21.38,0,0,1-12-3.52Q336.49,272.95,332,264.65Z"/><path class="cls-2" d="M332,264.65l.73,1.22,6.17-3.69-.74-1.22-1.25.68a30.71,30.71,0,0,0,7.38,9.42,14.1,14.1,0,0,0,8.92,3.3,15.78,15.78,0,0,0,7.52-1.87,13.45,13.45,0,0,0,5.44-5.09,13.26,13.26,0,0,0,1.87-6.79,13.73,13.73,0,0,0-2.72-8c-2.43-3.44-6.66-7.36-12.74-11.95q-4.5-3.41-7.28-5.84a26.31,26.31,0,0,1-3.72-3.78h0A16.7,16.7,0,0,1,338,220.81,15.39,15.39,0,0,1,340,212.9a14.82,14.82,0,0,1,5.84-5.61,17.08,17.08,0,0,1,8.27-2.07,17.66,17.66,0,0,1,8.89,2.36c2.7,1.53,5.75,4.5,9,8.95l1.15-.84-.86-1.14L366.4,219l.86,1.13,1.13-.85c-2.79-3.69-5.16-6.18-7.38-7.52a13.49,13.49,0,0,0-7-1.93,11.37,11.37,0,0,0-8.15,3.06,10.12,10.12,0,0,0-3.23,7.59,12.54,12.54,0,0,0,1.11,5.16,18,18,0,0,0,3.89,5.26h0c.57.55,1.59,1.38,3.18,2.61s3.68,2.8,6.33,4.76c6.21,4.58,10.41,8.64,12.57,12A18.52,18.52,0,0,1,373,260.46a17.09,17.09,0,0,1-5.56,12.69,18.71,18.71,0,0,1-13.58,5.42,20,20,0,0,1-11.21-3.29c-3.31-2.17-6.49-5.91-9.44-11.31l-1.25.68.73,1.22-.73-1.22-1.25.69c3.1,5.65,6.52,9.78,10.38,12.31a22.73,22.73,0,0,0,12.77,3.76,21.53,21.53,0,0,0,15.56-6.22,19.92,19.92,0,0,0,6.42-14.73,21.36,21.36,0,0,0-3.73-11.67c-2.5-3.86-6.91-8-13.27-12.75-2.64-1.95-4.74-3.53-6.28-4.72s-2.56-2-2.94-2.41l-1,1,1-1a15.68,15.68,0,0,1-3.3-4.4,9.92,9.92,0,0,1-.87-4A7.29,7.29,0,0,1,347.8,215a8.5,8.5,0,0,1,6.19-2.27,10.57,10.57,0,0,1,5.56,1.52c1.63,1,3.91,3.24,6.57,6.79l.86,1.14,8.17-6.2-.83-1.12c-3.39-4.63-6.63-7.89-9.88-9.75a20.55,20.55,0,0,0-10.3-2.72,20,20,0,0,0-9.63,2.41,17.61,17.61,0,0,0-6.93,6.68,18.2,18.2,0,0,0-2.47,9.34,19.62,19.62,0,0,0,4.13,11.95l1.14-.85-1.15.84a29.26,29.26,0,0,0,4.15,4.24c1.92,1.68,4.39,3.67,7.44,6,6,4.48,10,8.32,12.12,11.32a10.93,10.93,0,0,1,2.21,6.33,10.55,10.55,0,0,1-5.81,9.37,13,13,0,0,1-6.18,1.54,11.25,11.25,0,0,1-7.14-2.69,27.6,27.6,0,0,1-6.66-8.55l-.7-1.31L330,264.14l.66,1.2Z"/><path class="cls-2" d="M461.05,219.09l-5.73,4.39A31.22,31.22,0,0,0,444,214.13,33.3,33.3,0,0,0,429.38,211a32.18,32.18,0,0,0-16.07,4.17,30,30,0,0,0-11.47,11.19,31,31,0,0,0-4.07,15.81,29.7,29.7,0,0,0,9.1,22.14q9.11,8.88,23,8.88,15.24,0,25.49-11.94l5.73,4.34a36.57,36.57,0,0,1-13.54,10.68A42.56,42.56,0,0,1,429.38,280q-19,0-30-12.67-9.23-10.71-9.22-25.84a35.93,35.93,0,0,1,11.17-26.81q11.18-10.87,28-10.87a41.05,41.05,0,0,1,18.34,4A35.68,35.68,0,0,1,461.05,219.09Z"/><path class="cls-2" d="M461.05,219.09l-.87-1.13-5.72,4.39.86,1.13,1.13-.87a32.73,32.73,0,0,0-11.88-9.76,34.66,34.66,0,0,0-15.19-3.32,33.64,33.64,0,0,0-16.77,4.35,31.37,31.37,0,0,0-12,11.72,32.48,32.48,0,0,0-4.26,16.52,31.14,31.14,0,0,0,9.53,23.16c6.32,6.18,14.41,9.29,23.95,9.28a34,34,0,0,0,14.59-3.12,35.79,35.79,0,0,0,12-9.31l-1.08-.93-.86,1.14,5.73,4.34.86-1.14-1.12-.88a35.27,35.27,0,0,1-13,10.27,41.05,41.05,0,0,1-17.53,3.64,42,42,0,0,1-16.47-3.06,33.68,33.68,0,0,1-12.48-9.12h0c-5.92-6.89-8.87-15.11-8.88-24.91a34.54,34.54,0,0,1,10.74-25.79c7.2-7,16.09-10.45,27-10.47A39.52,39.52,0,0,1,447,209.1a34.08,34.08,0,0,1,12.89,10.82l1.16-.83-.87-1.13.87,1.13,1.15-.83a37.16,37.16,0,0,0-13.94-11.72,42.59,42.59,0,0,0-19-4.16c-11.52,0-21.28,3.76-29,11.28a37.34,37.34,0,0,0-11.6,27.82c0,10.38,3.19,19.38,9.56,26.77h0a36.43,36.43,0,0,0,13.52,9.88,44.82,44.82,0,0,0,17.58,3.28,43.8,43.8,0,0,0,18.73-3.9,37.91,37.91,0,0,0,14.05-11.09l.9-1.14-7.94-6-.87,1a33.15,33.15,0,0,1-11,8.59,31.23,31.23,0,0,1-13.39,2.84c-8.94,0-16.15-2.82-22-8.47s-8.66-12.6-8.67-21.12A29.48,29.48,0,0,1,403.07,227,28.49,28.49,0,0,1,414,216.36a30.82,30.82,0,0,1,15.37-4,32,32,0,0,1,14,3,30,30,0,0,1,10.86,8.93l.86,1.13,7.95-6.09-.81-1.12Z"/><path class="cls-2" d="M513.87,203.8q16.49,0,27.59,11a38.13,38.13,0,0,1-27,65.19,37.17,37.17,0,0,1-27.24-11,36.34,36.34,0,0,1-11.1-26.73,38.67,38.67,0,0,1,5.06-19.38,37.38,37.38,0,0,1,32.69-19Zm.32,7a31,31,0,0,0-26.52,15.5,31.43,31.43,0,0,0-4.05,15.84,30.51,30.51,0,0,0,30.57,30.75,31.1,31.1,0,0,0,15.64-4.1A29.28,29.28,0,0,0,541,257.64a31.51,31.51,0,0,0,4-15.79,30.72,30.72,0,0,0-4-15.62,30,30,0,0,0-11.34-11.18A30.63,30.63,0,0,0,514.19,210.85Z"/><path class="cls-2" d="M513.87,203.8v1.42c10.68,0,19.43,3.52,26.59,10.59s10.66,15.67,10.68,26.06a36.43,36.43,0,0,1-36.68,36.7c-10.43,0-19.07-3.52-26.23-10.63a34.88,34.88,0,0,1-10.68-25.72,37.2,37.2,0,0,1,4.87-18.68,35.94,35.94,0,0,1,31.45-18.32v-2.84a38.77,38.77,0,0,0-33.93,19.75,40.16,40.16,0,0,0-5.24,20.09A37.76,37.76,0,0,0,486.22,270a38.55,38.55,0,0,0,28.24,11.46,39.67,39.67,0,0,0,28-67.62c-7.65-7.59-17.29-11.43-28.59-11.41Zm.32,7v-1.42a32.42,32.42,0,0,0-27.76,16.22,32.81,32.81,0,0,0-4.23,16.54,31.92,31.92,0,0,0,32,32.17,32.53,32.53,0,0,0,16.34-4.28,30.82,30.82,0,0,0,11.75-11.74,32.9,32.9,0,0,0,4.21-16.49,32.18,32.18,0,0,0-4.22-16.33,31.53,31.53,0,0,0-11.86-11.71,32.17,32.17,0,0,0-16.22-4.38v2.85a29.24,29.24,0,0,1,14.81,4,28.67,28.67,0,0,1,10.81,10.66,29.27,29.27,0,0,1,3.83,14.91,30,30,0,0,1-3.84,15.09,27.93,27.93,0,0,1-10.68,10.67,29.67,29.67,0,0,1-14.93,3.91A29.11,29.11,0,0,1,485,242.19a30,30,0,0,1,3.86-15.14,28.79,28.79,0,0,1,10.75-10.77,28.38,28.38,0,0,1,14.54-4Z"/><path class="cls-2" d="M570.8,205.63h14.44q12.43,0,16.77,1.08A18.64,18.64,0,0,1,612.17,213a18.11,18.11,0,0,1,4,12,18.32,18.32,0,0,1-3.85,12,18.92,18.92,0,0,1-10.6,6.33q-4.93,1.19-18.45,1.19h-5.17v33.73H570.8Zm7.25,7.1v24.6l12.27.15q7.45,0,10.9-1.35a11.19,11.19,0,0,0,5.43-4.38,12.16,12.16,0,0,0,2-6.77,12,12,0,0,0-2-6.67,10.91,10.91,0,0,0-5.21-4.3c-2.15-.86-5.67-1.28-10.57-1.28Z"/><path class="cls-2" d="M570.8,205.63v1.42h14.44q6.19,0,10.32.27a36.28,36.28,0,0,1,6.11.77h0a17.15,17.15,0,0,1,9.41,5.82A16.66,16.66,0,0,1,614.69,225c0,4.58-1.19,8.2-3.52,11.06a17.52,17.52,0,0,1-9.84,5.85,43,43,0,0,1-6.83.85q-4.54.28-11.28.29h-6.6v33.73h-4.4V205.63H570.8v0h-1.43v74h10.1V245.86h3.75c4.53,0,8.34-.1,11.46-.3a46.49,46.49,0,0,0,7.32-.92,20.35,20.35,0,0,0,11.37-6.83,21.71,21.71,0,0,0-.1-25.72,20.1,20.1,0,0,0-10.92-6.76h0a38.83,38.83,0,0,0-6.62-.85c-2.84-.19-6.33-.28-10.5-.28H569.37v1.43Zm7.25,7.1h-1.43v26l13.69.16h0c5.06,0,8.8-.43,11.42-1.45a12.65,12.65,0,0,0,6.1-4.92A13.56,13.56,0,0,0,610,225a13.34,13.34,0,0,0-2.2-7.44,12.37,12.37,0,0,0-5.87-4.86c-2.49-1-6.11-1.37-11.1-1.38H576.62v1.43h1.43v1.42h12.82c4.81,0,8.23.45,10,1.18a9.47,9.47,0,0,1,4.54,3.76A10.64,10.64,0,0,1,607.2,225a10.75,10.75,0,0,1-1.74,6,9.78,9.78,0,0,1-4.76,3.84c-2,.78-5.5,1.26-10.38,1.25v1.42l0-1.42-10.87-.13v-23.2h-1.42v0Z"/><polygon class="cls-2" points="634.4 205.63 675.97 205.63 675.97 212.73 641.65 212.73 641.65 235.46 675.68 235.46 675.68 242.56 641.65 242.56 641.65 271.07 675.68 271.07 675.68 278.17 634.4 278.17 634.4 205.63"/><polygon class="cls-2" points="634.4 205.63 634.4 207.05 674.55 207.05 674.55 211.3 640.23 211.3 640.23 236.88 674.26 236.88 674.26 241.14 640.23 241.14 640.23 272.49 674.26 272.49 674.26 276.75 635.82 276.75 635.82 205.63 634.4 205.63 634.4 207.05 634.4 205.63 632.98 205.63 632.98 279.59 677.1 279.59 677.1 269.64 643.07 269.64 643.07 243.98 677.1 243.98 677.1 234.04 643.07 234.04 643.07 214.15 677.39 214.15 677.39 204.2 632.98 204.2 632.98 205.63 634.4 205.63"/><path class="cls-2" d="M567.39,98.42v.1a3.55,3.55,0,0,1,0,6.92v.1H609V98.42Z"/><path class="cls-2" d="M358.07,98.68v-.26H294.93a59,59,0,0,0-3-15.12A54.91,54.91,0,0,0,275.13,59a74.85,74.85,0,0,0-17-10.65,106.16,106.16,0,0,0-23.38-7.49,92.47,92.47,0,0,0-10.72-1.56,5.69,5.69,0,0,0-1.65,11.23h0a57.73,57.73,0,0,1,7.37,2.41c6.41,2.5,15.75,7.2,23.2,14.78a45.48,45.48,0,0,1,9.38,13.6,46.17,46.17,0,0,1,3.84,18.94c0,.52,0,1.05,0,1.58a50.3,50.3,0,0,1-7.24,25.38,52.78,52.78,0,0,1-10.89,12.62,69.58,69.58,0,0,1-17.53,10.75c-2.49,1.07-4.59,1.81-6,2.28-.72.23-1.28.39-1.65.49l-.39.11-.08,0h0a5.69,5.69,0,0,0,1.52,11.22,91,91,0,0,0,11-1.26,106.66,106.66,0,0,0,17.4-4.45c9.66-3.4,20.24-8.83,28.6-17.83a51.62,51.62,0,0,0,10.26-16.24,58.25,58.25,0,0,0,3.88-19.37h63v-.26a3.55,3.55,0,0,1,0-6.6Zm-76.86,20.37a41.29,41.29,0,0,1-13.35,18.76,53.46,53.46,0,0,1-5.56,3.91,60.37,60.37,0,0,0,9.83-15.17,63.17,63.17,0,0,0,5.43-24.41c0-.64,0-1.28,0-1.9a56.29,56.29,0,0,0-8.39-30.32c-.51-.81-1-1.6-1.57-2.38a49.28,49.28,0,0,1,5,4.87,42.33,42.33,0,0,1,8,13,48.52,48.52,0,0,1,3.1,17.69A48.54,48.54,0,0,1,281.21,119.05Z"/><path class="cls-2" d="M370.42,105.54h24a3.55,3.55,0,0,0,3.29-2.21L397,103l.73.3h0L397,103l.73.3a35.89,35.89,0,0,1,3.43-6.19,17.89,17.89,0,0,1,3.39-3.76,6.83,6.83,0,0,1,1.63-1,3.15,3.15,0,0,1,2.64,0,8.45,8.45,0,0,1,2.78,2.19,25.7,25.7,0,0,1,3.6,5.58c.44.89.77,1.66,1,2.2.11.27.19.49.24.63l.06.15v0l.15,0-.15,0h0l.15,0-.15,0a3.56,3.56,0,0,0,3.35,2.37h13.61l7.08,17a3.56,3.56,0,0,0,6.8-.82L460.85,34l9.17,113a3.56,3.56,0,0,0,7,.55l10.23-41.95h28.44a3.55,3.55,0,0,0,3.36-2.39h0a60.7,60.7,0,0,1,4.13-8.9,26.59,26.59,0,0,1,4.12-5.56,8.85,8.85,0,0,1,2-1.54,3.53,3.53,0,0,1,1.52-.46h.08a2.72,2.72,0,0,1,1.33.38,10.81,10.81,0,0,1,3.3,3.28,40.13,40.13,0,0,1,4.24,8.19c.51,1.29.9,2.41,1.17,3.21.13.4.23.71.29.92l.07.24,0,0h0a3.56,3.56,0,0,0,3.42,2.58h11.62a3.56,3.56,0,0,0,0-7.12H544.75V102l3.42-1a63,63,0,0,0-4-10.07,31,31,0,0,0-5-7.32,15,15,0,0,0-3.58-2.81,10,10,0,0,0-4.71-1.24h-.36a10.75,10.75,0,0,0-4.66,1.33A19.68,19.68,0,0,0,520,86.25a49.61,49.61,0,0,0-5.59,9.56c-1.3,2.84-2,4.93-2.06,5l3.36,1.17V98.42H484.46a3.56,3.56,0,0,0-3.46,2.72l-5.67,23.28L465.49,3.27A3.56,3.56,0,0,0,458.43,3L442.2,108.15l-3.12-7.53a3.56,3.56,0,0,0-3.29-2.2h-16V102l3.35-1.19a40.52,40.52,0,0,0-3.68-7.44,23.53,23.53,0,0,0-4.61-5.44,13.94,13.94,0,0,0-3.3-2.06,10.24,10.24,0,0,0-4.11-.86,10.66,10.66,0,0,0-4.11.85,16.31,16.31,0,0,0-5.41,3.93,34.8,34.8,0,0,0-5,7.11,39.51,39.51,0,0,0-1.82,3.75l3.29,1.35V98.42h-24a3.56,3.56,0,1,0,0,7.12Z"/><path class="cls-1" d="M629.28,102h-5a6.91,6.91,0,1,1-2-4.89,6.85,6.85,0,0,1,2,4.89h10a16.87,16.87,0,1,0-4.94,11.93A16.88,16.88,0,0,0,634.26,102Z"/></g></g></svg>